<svg width="633" height="188" viewBox="0 0 633 188" fill="none" xmlns="http://www.w3.org/2000/svg">
<g filter="url(#filter0_f_243_50885)">
<mask id="path-1-outside-1_243_50885" maskUnits="userSpaceOnUse" x="28" y="51" width="582" height="107" fill="black">
<rect fill="white" x="28" y="51" width="582" height="107"/>
<path d="M77.2839 128L54.7531 86.9959H78.6721C80.5942 86.9959 82.1959 86.3552 83.4773 85.0739C84.8298 83.7213 85.5061 82.084 85.5061 80.1619C85.5061 78.2399 84.8298 76.6381 83.4773 75.3568C82.1959 74.0042 80.5942 73.3279 78.6721 73.3279H44.502V128H30.834V59.6599H78.6721C84.3671 59.6599 89.2079 61.6531 93.1944 65.6396C97.1809 69.6262 99.1741 74.4669 99.1741 80.1619C99.1741 85.8569 97.1809 90.6977 93.1944 94.6842C89.2079 98.6707 84.3671 100.664 78.6721 100.664H75.6822L90.8452 128H77.2839ZM136.629 128C127.161 128 119.081 124.69 112.389 118.069C105.769 111.378 102.459 103.298 102.459 93.8299C102.459 84.362 105.769 76.3178 112.389 69.6973C119.081 63.0057 127.161 59.6599 136.629 59.6599C146.097 59.6599 154.141 63.0057 160.761 69.6973C167.453 76.3178 170.799 84.362 170.799 93.8299C170.799 103.298 167.453 111.378 160.761 118.069C154.141 124.69 146.097 128 136.629 128ZM136.629 114.332C142.324 114.332 147.165 112.339 151.151 108.352C155.138 104.366 157.131 99.525 157.131 93.8299C157.131 88.1349 155.138 83.2942 151.151 79.3077C147.165 75.3212 142.324 73.3279 136.629 73.3279C130.934 73.3279 126.093 75.3212 122.107 79.3077C118.12 83.2942 116.127 88.1349 116.127 93.8299C116.127 99.525 118.12 104.366 122.107 108.352C126.093 112.339 130.934 114.332 136.629 114.332ZM225.445 128H177.607V59.6599H225.445C231.14 59.6599 235.981 61.6531 239.968 65.6396C243.954 69.6262 245.947 74.4669 245.947 80.1619C245.947 85.4298 244.239 89.9858 240.822 93.8299C244.239 97.6741 245.947 102.23 245.947 107.498C245.947 113.193 243.954 118.034 239.968 122.02C235.981 126.007 231.14 128 225.445 128ZM191.275 114.332H225.445C227.367 114.332 228.969 113.691 230.25 112.41C231.603 111.057 232.279 109.42 232.279 107.498C232.279 105.576 231.603 103.974 230.25 102.693C228.969 101.34 227.367 100.664 225.445 100.664H208.36V86.9959H225.445C227.367 86.9959 228.969 86.3552 230.25 85.0739C231.603 83.7213 232.279 82.084 232.279 80.1619C232.279 78.2399 231.603 76.6381 230.25 75.3568C228.969 74.0042 227.367 73.3279 225.445 73.3279H191.275V114.332ZM285.644 128C276.176 128 268.097 124.69 261.405 118.069C254.785 111.378 251.474 103.298 251.474 93.8299C251.474 84.362 254.785 76.3178 261.405 69.6973C268.097 63.0057 276.176 59.6599 285.644 59.6599C295.112 59.6599 303.157 63.0057 309.777 69.6973C316.469 76.3178 319.814 84.362 319.814 93.8299C319.814 103.298 316.469 111.378 309.777 118.069C303.157 124.69 295.112 128 285.644 128ZM285.644 114.332C291.339 114.332 296.18 112.339 300.167 108.352C304.153 104.366 306.146 99.525 306.146 93.8299C306.146 88.1349 304.153 83.2942 300.167 79.3077C296.18 75.3212 291.339 73.3279 285.644 73.3279C279.949 73.3279 275.109 75.3212 271.122 79.3077C267.136 83.2942 265.142 88.1349 265.142 93.8299C265.142 99.525 267.136 104.366 271.122 108.352C275.109 112.339 279.949 114.332 285.644 114.332ZM340.291 155.336H326.623V59.6599H374.461C380.156 59.6599 384.997 61.6531 388.983 65.6396C392.97 69.6262 394.963 74.4669 394.963 80.1619C394.963 85.8569 392.97 90.6977 388.983 94.6842C384.997 98.6707 380.156 100.664 374.461 100.664H357.376V86.9959H374.461C376.383 86.9959 377.985 86.3552 379.266 85.0739C380.619 83.7213 381.295 82.084 381.295 80.1619C381.295 78.2399 380.619 76.6381 379.266 75.3568C377.985 74.0042 376.383 73.3279 374.461 73.3279H340.291V155.336ZM380.202 128L414.372 56.2429L448.542 128H433.165L414.372 88.7044L395.578 128H380.202ZM476.813 114.332H524.651V128H476.813C467.345 128 459.265 124.69 452.574 118.069C445.953 111.378 442.643 103.298 442.643 93.8299C442.643 84.362 445.953 76.3178 452.574 69.6973C459.265 63.0057 467.345 59.6599 476.813 59.6599H531.485L524.651 73.3279H476.813C471.118 73.3279 466.277 75.3212 462.291 79.3077C458.304 83.2942 456.311 88.1349 456.311 93.8299C456.311 99.525 458.304 104.366 462.291 108.352C466.277 112.339 471.118 114.332 476.813 114.332ZM548.331 103.547V128H534.663V59.6599H548.331V84.1128L582.501 59.6599H603.003L555.165 93.8299L603.003 128H582.501L548.331 103.547Z"/>
</mask>
<path d="M77.2839 128L54.7531 86.9959H78.6721C80.5942 86.9959 82.1959 86.3552 83.4773 85.0739C84.8298 83.7213 85.5061 82.084 85.5061 80.1619C85.5061 78.2399 84.8298 76.6381 83.4773 75.3568C82.1959 74.0042 80.5942 73.3279 78.6721 73.3279H44.502V128H30.834V59.6599H78.6721C84.3671 59.6599 89.2079 61.6531 93.1944 65.6396C97.1809 69.6262 99.1741 74.4669 99.1741 80.1619C99.1741 85.8569 97.1809 90.6977 93.1944 94.6842C89.2079 98.6707 84.3671 100.664 78.6721 100.664H75.6822L90.8452 128H77.2839ZM136.629 128C127.161 128 119.081 124.69 112.389 118.069C105.769 111.378 102.459 103.298 102.459 93.8299C102.459 84.362 105.769 76.3178 112.389 69.6973C119.081 63.0057 127.161 59.6599 136.629 59.6599C146.097 59.6599 154.141 63.0057 160.761 69.6973C167.453 76.3178 170.799 84.362 170.799 93.8299C170.799 103.298 167.453 111.378 160.761 118.069C154.141 124.69 146.097 128 136.629 128ZM136.629 114.332C142.324 114.332 147.165 112.339 151.151 108.352C155.138 104.366 157.131 99.525 157.131 93.8299C157.131 88.1349 155.138 83.2942 151.151 79.3077C147.165 75.3212 142.324 73.3279 136.629 73.3279C130.934 73.3279 126.093 75.3212 122.107 79.3077C118.12 83.2942 116.127 88.1349 116.127 93.8299C116.127 99.525 118.12 104.366 122.107 108.352C126.093 112.339 130.934 114.332 136.629 114.332ZM225.445 128H177.607V59.6599H225.445C231.14 59.6599 235.981 61.6531 239.968 65.6396C243.954 69.6262 245.947 74.4669 245.947 80.1619C245.947 85.4298 244.239 89.9858 240.822 93.8299C244.239 97.6741 245.947 102.23 245.947 107.498C245.947 113.193 243.954 118.034 239.968 122.02C235.981 126.007 231.14 128 225.445 128ZM191.275 114.332H225.445C227.367 114.332 228.969 113.691 230.25 112.41C231.603 111.057 232.279 109.42 232.279 107.498C232.279 105.576 231.603 103.974 230.25 102.693C228.969 101.34 227.367 100.664 225.445 100.664H208.36V86.9959H225.445C227.367 86.9959 228.969 86.3552 230.25 85.0739C231.603 83.7213 232.279 82.084 232.279 80.1619C232.279 78.2399 231.603 76.6381 230.25 75.3568C228.969 74.0042 227.367 73.3279 225.445 73.3279H191.275V114.332ZM285.644 128C276.176 128 268.097 124.69 261.405 118.069C254.785 111.378 251.474 103.298 251.474 93.8299C251.474 84.362 254.785 76.3178 261.405 69.6973C268.097 63.0057 276.176 59.6599 285.644 59.6599C295.112 59.6599 303.157 63.0057 309.777 69.6973C316.469 76.3178 319.814 84.362 319.814 93.8299C319.814 103.298 316.469 111.378 309.777 118.069C303.157 124.69 295.112 128 285.644 128ZM285.644 114.332C291.339 114.332 296.18 112.339 300.167 108.352C304.153 104.366 306.146 99.525 306.146 93.8299C306.146 88.1349 304.153 83.2942 300.167 79.3077C296.18 75.3212 291.339 73.3279 285.644 73.3279C279.949 73.3279 275.109 75.3212 271.122 79.3077C267.136 83.2942 265.142 88.1349 265.142 93.8299C265.142 99.525 267.136 104.366 271.122 108.352C275.109 112.339 279.949 114.332 285.644 114.332ZM340.291 155.336H326.623V59.6599H374.461C380.156 59.6599 384.997 61.6531 388.983 65.6396C392.97 69.6262 394.963 74.4669 394.963 80.1619C394.963 85.8569 392.97 90.6977 388.983 94.6842C384.997 98.6707 380.156 100.664 374.461 100.664H357.376V86.9959H374.461C376.383 86.9959 377.985 86.3552 379.266 85.0739C380.619 83.7213 381.295 82.084 381.295 80.1619C381.295 78.2399 380.619 76.6381 379.266 75.3568C377.985 74.0042 376.383 73.3279 374.461 73.3279H340.291V155.336ZM380.202 128L414.372 56.2429L448.542 128H433.165L414.372 88.7044L395.578 128H380.202ZM476.813 114.332H524.651V128H476.813C467.345 128 459.265 124.69 452.574 118.069C445.953 111.378 442.643 103.298 442.643 93.8299C442.643 84.362 445.953 76.3178 452.574 69.6973C459.265 63.0057 467.345 59.6599 476.813 59.6599H531.485L524.651 73.3279H476.813C471.118 73.3279 466.277 75.3212 462.291 79.3077C458.304 83.2942 456.311 88.1349 456.311 93.8299C456.311 99.525 458.304 104.366 462.291 108.352C466.277 112.339 471.118 114.332 476.813 114.332ZM548.331 103.547V128H534.663V59.6599H548.331V84.1128L582.501 59.6599H603.003L555.165 93.8299L603.003 128H582.501L548.331 103.547Z" fill="#FBDC01"/>
<path d="M77.2839 128L75.5311 128.963L76.1009 130H77.2839V128ZM54.7531 86.9959V84.9959H51.3721L53.0002 87.9591L54.7531 86.9959ZM83.4773 85.0739L84.8915 86.4881L83.4773 85.0739ZM83.4773 75.3568L82.0254 76.7322L82.0625 76.7715L82.1018 76.8087L83.4773 75.3568ZM44.502 73.3279V71.3279H42.502V73.3279H44.502ZM44.502 128V130H46.502V128H44.502ZM30.834 128H28.834V130H30.834V128ZM30.834 59.6599V57.6599H28.834V59.6599H30.834ZM75.6822 100.664V98.664H72.2858L73.9333 101.634L75.6822 100.664ZM90.8452 128V130H94.2416L92.5941 127.03L90.8452 128ZM79.0368 127.037L56.5059 86.0328L53.0002 87.9591L75.5311 128.963L79.0368 127.037ZM54.7531 88.9959H78.6721V84.9959H54.7531V88.9959ZM78.6721 88.9959C81.0889 88.9959 83.2105 88.169 84.8915 86.4881L82.063 83.6597C81.1813 84.5414 80.0994 84.9959 78.6721 84.9959V88.9959ZM84.8915 86.4881C86.6211 84.7584 87.5061 82.6115 87.5061 80.1619H83.5061C83.5061 81.5564 83.0385 82.6842 82.063 83.6597L84.8915 86.4881ZM87.5061 80.1619C87.5061 77.7103 86.618 75.5772 84.8527 73.9048L82.1018 76.8087C83.0417 77.6991 83.5061 78.7695 83.5061 80.1619H87.5061ZM84.9292 73.9813C83.2568 72.216 81.1238 71.3279 78.6721 71.3279V75.3279C80.0646 75.3279 81.1349 75.7924 82.0254 76.7322L84.9292 73.9813ZM78.6721 71.3279H44.502V75.3279H78.6721V71.3279ZM42.502 73.3279V128H46.502V73.3279H42.502ZM44.502 126H30.834V130H44.502V126ZM32.834 128V59.6599H28.834V128H32.834ZM30.834 61.6599H78.6721V57.6599H30.834V61.6599ZM78.6721 61.6599C83.8427 61.6599 88.173 63.4467 91.7802 67.0539L94.6086 64.2254C90.2427 59.8596 84.8915 57.6599 78.6721 57.6599V61.6599ZM91.7802 67.0539C95.3873 70.661 97.1741 74.9913 97.1741 80.1619H101.174C101.174 73.9425 98.9744 68.5913 94.6086 64.2254L91.7802 67.0539ZM97.1741 80.1619C97.1741 85.3326 95.3873 89.6628 91.7802 93.27L94.6086 96.0984C98.9744 91.7326 101.174 86.3813 101.174 80.1619H97.1741ZM91.7802 93.27C88.173 96.8772 83.8427 98.664 78.6721 98.664V102.664C84.8915 102.664 90.2427 100.464 94.6086 96.0984L91.7802 93.27ZM78.6721 98.664H75.6822V102.664H78.6721V98.664ZM73.9333 101.634L89.0962 128.97L92.5941 127.03L77.4312 99.6938L73.9333 101.634ZM90.8452 126H77.2839V130H90.8452V126ZM112.389 118.069L110.968 119.476L110.975 119.484L110.983 119.491L112.389 118.069ZM112.389 69.6973L110.975 68.2831L112.389 69.6973ZM160.761 69.6973L159.34 71.104L159.347 71.1116L159.355 71.1191L160.761 69.6973ZM151.151 108.352L149.737 106.938L151.151 108.352ZM151.151 79.3077L149.737 80.7219L151.151 79.3077ZM136.629 126C127.684 126 120.111 122.895 113.796 116.648L110.983 119.491C118.051 126.484 126.638 130 136.629 130V126ZM113.811 116.663C107.564 110.348 104.459 102.775 104.459 93.8299H100.459C100.459 103.821 103.974 112.407 110.968 119.476L113.811 116.663ZM104.459 93.8299C104.459 84.8857 107.563 77.3522 113.804 71.1115L110.975 68.2831C103.975 75.2834 100.459 83.8383 100.459 93.8299H104.459ZM113.804 71.1115C120.12 64.7952 127.691 61.6599 136.629 61.6599V57.6599C126.631 57.6599 118.042 61.2162 110.975 68.2831L113.804 71.1115ZM136.629 61.6599C145.566 61.6599 153.097 64.7945 159.34 71.104L162.183 68.2907C155.185 61.2169 146.627 57.6599 136.629 57.6599V61.6599ZM159.355 71.1191C165.664 77.3614 168.799 84.8926 168.799 93.8299H172.799C172.799 83.8314 169.242 75.2742 162.168 68.2756L159.355 71.1191ZM168.799 93.8299C168.799 102.768 165.664 110.339 159.347 116.655L162.176 119.484C169.243 112.417 172.799 103.828 172.799 93.8299H168.799ZM159.347 116.655C153.107 122.896 145.573 126 136.629 126V130C146.62 130 155.175 126.484 162.176 119.484L159.347 116.655ZM136.629 116.332C142.848 116.332 148.199 114.132 152.565 109.766L149.737 106.938C146.13 110.545 141.799 112.332 136.629 112.332V116.332ZM152.565 109.766C156.931 105.401 159.131 100.049 159.131 93.8299H155.131C155.131 99.0006 153.344 103.331 149.737 106.938L152.565 109.766ZM159.131 93.8299C159.131 87.6105 156.931 82.2593 152.565 77.8935L149.737 80.7219C153.344 84.3291 155.131 88.6593 155.131 93.8299H159.131ZM152.565 77.8935C148.199 73.5276 142.848 71.3279 136.629 71.3279V75.3279C141.799 75.3279 146.13 77.1147 149.737 80.7219L152.565 77.8935ZM136.629 71.3279C130.409 71.3279 125.058 73.5276 120.692 77.8935L123.521 80.7219C127.128 77.1147 131.458 75.3279 136.629 75.3279V71.3279ZM120.692 77.8935C116.326 82.2593 114.127 87.6105 114.127 93.8299H118.127C118.127 88.6593 119.914 84.3291 123.521 80.7219L120.692 77.8935ZM114.127 93.8299C114.127 100.049 116.326 105.401 120.692 109.766L123.521 106.938C119.914 103.331 118.127 99.0006 118.127 93.8299H114.127ZM120.692 109.766C125.058 114.132 130.409 116.332 136.629 116.332V112.332C131.458 112.332 127.128 110.545 123.521 106.938L120.692 109.766ZM177.607 128H175.607V130H177.607V128ZM177.607 59.6599V57.6599H175.607V59.6599H177.607ZM240.822 93.8299L239.327 92.5012L238.146 93.8299L239.327 95.1587L240.822 93.8299ZM191.275 114.332H189.275V116.332H191.275V114.332ZM230.25 112.41L231.665 113.824L230.25 112.41ZM230.25 102.693L228.799 104.068L228.836 104.108L228.875 104.145L230.25 102.693ZM208.36 100.664H206.36V102.664H208.36V100.664ZM208.36 86.9959V84.9959H206.36V86.9959H208.36ZM230.25 85.0739L231.665 86.4881L230.25 85.0739ZM230.25 75.3568L228.799 76.7322L228.836 76.7715L228.875 76.8087L230.25 75.3568ZM191.275 73.3279V71.3279H189.275V73.3279H191.275ZM225.445 126H177.607V130H225.445V126ZM179.607 128V59.6599H175.607V128H179.607ZM177.607 61.6599H225.445V57.6599H177.607V61.6599ZM225.445 61.6599C230.616 61.6599 234.946 63.4467 238.553 67.0539L241.382 64.2254C237.016 59.8596 231.665 57.6599 225.445 57.6599V61.6599ZM238.553 67.0539C242.161 70.661 243.947 74.9913 243.947 80.1619H247.947C247.947 73.9425 245.748 68.5913 241.382 64.2254L238.553 67.0539ZM243.947 80.1619C243.947 84.953 242.41 89.0328 239.327 92.5012L242.317 95.1587C246.068 90.9388 247.947 85.9066 247.947 80.1619H243.947ZM239.327 95.1587C242.41 98.6271 243.947 102.707 243.947 107.498H247.947C247.947 101.753 246.068 96.7211 242.317 92.5012L239.327 95.1587ZM243.947 107.498C243.947 112.669 242.161 116.999 238.553 120.606L241.382 123.434C245.748 119.069 247.947 113.717 247.947 107.498H243.947ZM238.553 120.606C234.946 124.213 230.616 126 225.445 126V130C231.665 130 237.016 127.8 241.382 123.434L238.553 120.606ZM191.275 116.332H225.445V112.332H191.275V116.332ZM225.445 116.332C227.862 116.332 229.984 115.505 231.665 113.824L228.836 110.996C227.954 111.877 226.873 112.332 225.445 112.332V116.332ZM231.665 113.824C233.394 112.094 234.279 109.948 234.279 107.498H230.279C230.279 108.892 229.812 110.02 228.836 110.996L231.665 113.824ZM234.279 107.498C234.279 105.046 233.391 102.913 231.626 101.241L228.875 104.145C229.815 105.035 230.279 106.105 230.279 107.498H234.279ZM231.702 101.317C230.03 99.5521 227.897 98.664 225.445 98.664V102.664C226.838 102.664 227.908 103.128 228.799 104.068L231.702 101.317ZM225.445 98.664H208.36V102.664H225.445V98.664ZM210.36 100.664V86.9959H206.36V100.664H210.36ZM208.36 88.9959H225.445V84.9959H208.36V88.9959ZM225.445 88.9959C227.862 88.9959 229.984 88.169 231.665 86.4881L228.836 83.6597C227.954 84.5414 226.873 84.9959 225.445 84.9959V88.9959ZM231.665 86.4881C233.394 84.7584 234.279 82.6115 234.279 80.1619H230.279C230.279 81.5564 229.812 82.6842 228.836 83.6597L231.665 86.4881ZM234.279 80.1619C234.279 77.7103 233.391 75.5772 231.626 73.9048L228.875 76.8087C229.815 77.6991 230.279 78.7695 230.279 80.1619H234.279ZM231.702 73.9813C230.03 72.216 227.897 71.3279 225.445 71.3279V75.3279C226.838 75.3279 227.908 75.7924 228.799 76.7322L231.702 73.9813ZM225.445 71.3279H191.275V75.3279H225.445V71.3279ZM189.275 73.3279V114.332H193.275V73.3279H189.275ZM261.405 118.069L259.983 119.476L259.991 119.484L259.998 119.491L261.405 118.069ZM261.405 69.6973L259.991 68.2831L261.405 69.6973ZM309.777 69.6973L308.355 71.104L308.363 71.1116L308.37 71.1191L309.777 69.6973ZM300.167 108.352L298.752 106.938L300.167 108.352ZM300.167 79.3077L298.752 80.7219L300.167 79.3077ZM285.644 126C276.7 126 269.126 122.895 262.812 116.648L259.998 119.491C267.067 126.484 275.653 130 285.644 130V126ZM262.827 116.663C256.579 110.348 253.474 102.775 253.474 93.8299H249.474C249.474 103.821 252.99 112.407 259.983 119.476L262.827 116.663ZM253.474 93.8299C253.474 84.8857 256.579 77.3522 262.819 71.1115L259.991 68.2831C252.991 75.2834 249.474 83.8383 249.474 93.8299H253.474ZM262.819 71.1115C269.136 64.7952 276.707 61.6599 285.644 61.6599V57.6599C275.646 57.6599 267.058 61.2162 259.991 68.2831L262.819 71.1115ZM285.644 61.6599C294.582 61.6599 302.113 64.7945 308.355 71.104L311.199 68.2907C304.2 61.2169 295.643 57.6599 285.644 57.6599V61.6599ZM308.37 71.1191C314.68 77.3614 317.814 84.8926 317.814 93.8299H321.814C321.814 83.8314 318.257 75.2742 311.184 68.2756L308.37 71.1191ZM317.814 93.8299C317.814 102.768 314.679 110.339 308.363 116.655L311.191 119.484C318.258 112.417 321.814 103.828 321.814 93.8299H317.814ZM308.363 116.655C302.122 122.896 294.589 126 285.644 126V130C295.636 130 304.191 126.484 311.191 119.484L308.363 116.655ZM285.644 116.332C291.864 116.332 297.215 114.132 301.581 109.766L298.752 106.938C295.145 110.545 290.815 112.332 285.644 112.332V116.332ZM301.581 109.766C305.947 105.401 308.146 100.049 308.146 93.8299H304.146C304.146 99.0006 302.36 103.331 298.752 106.938L301.581 109.766ZM308.146 93.8299C308.146 87.6105 305.947 82.2593 301.581 77.8935L298.752 80.7219C302.36 84.3291 304.146 88.6593 304.146 93.8299H308.146ZM301.581 77.8935C297.215 73.5276 291.864 71.3279 285.644 71.3279V75.3279C290.815 75.3279 295.145 77.1147 298.752 80.7219L301.581 77.8935ZM285.644 71.3279C279.425 71.3279 274.074 73.5276 269.708 77.8935L272.536 80.7219C276.144 77.1147 280.474 75.3279 285.644 75.3279V71.3279ZM269.708 77.8935C265.342 82.2593 263.142 87.6105 263.142 93.8299H267.142C267.142 88.6593 268.929 84.3291 272.536 80.7219L269.708 77.8935ZM263.142 93.8299C263.142 100.049 265.342 105.401 269.708 109.766L272.536 106.938C268.929 103.331 267.142 99.0006 267.142 93.8299H263.142ZM269.708 109.766C274.074 114.132 279.425 116.332 285.644 116.332V112.332C280.474 112.332 276.144 110.545 272.536 106.938L269.708 109.766ZM340.291 155.336V157.336H342.291V155.336H340.291ZM326.623 155.336H324.623V157.336H326.623V155.336ZM326.623 59.6599V57.6599H324.623V59.6599H326.623ZM357.376 100.664H355.376V102.664H357.376V100.664ZM357.376 86.9959V84.9959H355.376V86.9959H357.376ZM379.266 85.0739L380.68 86.4881L379.266 85.0739ZM379.266 75.3568L377.814 76.7322L377.851 76.7715L377.891 76.8087L379.266 75.3568ZM340.291 73.3279V71.3279H338.291V73.3279H340.291ZM340.291 153.336H326.623V157.336H340.291V153.336ZM328.623 155.336V59.6599H324.623V155.336H328.623ZM326.623 61.6599H374.461V57.6599H326.623V61.6599ZM374.461 61.6599C379.632 61.6599 383.962 63.4467 387.569 67.0539L390.397 64.2254C386.032 59.8596 380.68 57.6599 374.461 57.6599V61.6599ZM387.569 67.0539C391.176 70.661 392.963 74.9913 392.963 80.1619H396.963C396.963 73.9425 394.763 68.5913 390.397 64.2254L387.569 67.0539ZM392.963 80.1619C392.963 85.3326 391.176 89.6628 387.569 93.27L390.397 96.0984C394.763 91.7326 396.963 86.3813 396.963 80.1619H392.963ZM387.569 93.27C383.962 96.8772 379.632 98.664 374.461 98.664V102.664C380.68 102.664 386.032 100.464 390.397 96.0984L387.569 93.27ZM374.461 98.664H357.376V102.664H374.461V98.664ZM359.376 100.664V86.9959H355.376V100.664H359.376ZM357.376 88.9959H374.461V84.9959H357.376V88.9959ZM374.461 88.9959C376.878 88.9959 378.999 88.169 380.68 86.4881L377.852 83.6597C376.97 84.5414 375.888 84.9959 374.461 84.9959V88.9959ZM380.68 86.4881C382.41 84.7584 383.295 82.6115 383.295 80.1619H379.295C379.295 81.5564 378.827 82.6842 377.852 83.6597L380.68 86.4881ZM383.295 80.1619C383.295 77.7103 382.407 75.5772 380.642 73.9048L377.891 76.8087C378.831 77.6991 379.295 78.7695 379.295 80.1619H383.295ZM380.718 73.9813C379.046 72.216 376.913 71.3279 374.461 71.3279V75.3279C375.853 75.3279 376.924 75.7924 377.814 76.7322L380.718 73.9813ZM374.461 71.3279H340.291V75.3279H374.461V71.3279ZM338.291 73.3279V155.336H342.291V73.3279H338.291ZM380.202 128L378.396 127.14L377.034 130H380.202V128ZM414.372 56.2429L416.177 55.383L414.372 51.591L412.566 55.383L414.372 56.2429ZM448.542 128V130H451.709L450.347 127.14L448.542 128ZM433.165 128L431.361 128.863L431.905 130H433.165V128ZM414.372 88.7044L416.176 87.8415L414.372 84.069L412.567 87.8415L414.372 88.7044ZM395.578 128V130H396.838L397.382 128.863L395.578 128ZM382.007 128.86L416.177 57.1027L412.566 55.383L378.396 127.14L382.007 128.86ZM412.566 57.1027L446.736 128.86L450.347 127.14L416.177 55.383L412.566 57.1027ZM448.542 126H433.165V130H448.542V126ZM434.969 127.137L416.176 87.8415L412.567 89.5673L431.361 128.863L434.969 127.137ZM412.567 87.8415L393.774 127.137L397.382 128.863L416.176 89.5673L412.567 87.8415ZM395.578 126H380.202V130H395.578V126ZM524.651 114.332H526.651V112.332H524.651V114.332ZM524.651 128V130H526.651V128H524.651ZM452.574 118.069L451.152 119.476L451.159 119.484L451.167 119.491L452.574 118.069ZM452.574 69.6973L451.159 68.2831L452.574 69.6973ZM531.485 59.6599L533.274 60.5543L534.721 57.6599H531.485V59.6599ZM524.651 73.3279V75.3279H525.887L526.44 74.2223L524.651 73.3279ZM476.813 116.332H524.651V112.332H476.813V116.332ZM522.651 114.332V128H526.651V114.332H522.651ZM524.651 126H476.813V130H524.651V126ZM476.813 126C467.868 126 460.295 122.895 453.98 116.648L451.167 119.491C458.236 126.484 466.822 130 476.813 130V126ZM453.995 116.663C447.748 110.348 444.643 102.775 444.643 93.8299H440.643C440.643 103.821 444.159 112.407 451.152 119.476L453.995 116.663ZM444.643 93.8299C444.643 84.8857 447.747 77.3522 453.988 71.1115L451.159 68.2831C444.159 75.2834 440.643 83.8383 440.643 93.8299H444.643ZM453.988 71.1115C460.304 64.7952 467.875 61.6599 476.813 61.6599V57.6599C466.815 57.6599 458.226 61.2162 451.159 68.2831L453.988 71.1115ZM476.813 61.6599H531.485V57.6599H476.813V61.6599ZM529.696 58.7655L522.862 72.4335L526.44 74.2223L533.274 60.5543L529.696 58.7655ZM524.651 71.3279H476.813V75.3279H524.651V71.3279ZM476.813 71.3279C470.594 71.3279 465.242 73.5276 460.877 77.8935L463.705 80.7219C467.312 77.1147 471.642 75.3279 476.813 75.3279V71.3279ZM460.877 77.8935C456.511 82.2593 454.311 87.6105 454.311 93.8299H458.311C458.311 88.6593 460.098 84.3291 463.705 80.7219L460.877 77.8935ZM454.311 93.8299C454.311 100.049 456.511 105.401 460.877 109.766L463.705 106.938C460.098 103.331 458.311 99.0006 458.311 93.8299H454.311ZM460.877 109.766C465.242 114.132 470.594 116.332 476.813 116.332V112.332C471.642 112.332 467.312 110.545 463.705 106.938L460.877 109.766ZM548.331 103.547L549.495 101.921L546.331 99.6564V103.547H548.331ZM548.331 128V130H550.331V128H548.331ZM534.663 128H532.663V130H534.663V128ZM534.663 59.6599V57.6599H532.663V59.6599H534.663ZM548.331 59.6599H550.331V57.6599H548.331V59.6599ZM548.331 84.1128H546.331V88.0034L549.495 85.7393L548.331 84.1128ZM582.501 59.6599V57.6599H581.859L581.337 58.0334L582.501 59.6599ZM603.003 59.6599L604.166 61.2873L609.244 57.6599H603.003V59.6599ZM555.165 93.8299L554.003 92.2025L551.724 93.8299L554.003 95.4574L555.165 93.8299ZM603.003 128V130H609.244L604.166 126.373L603.003 128ZM582.501 128L581.337 129.626L581.859 130H582.501V128ZM546.331 103.547V128H550.331V103.547H546.331ZM548.331 126H534.663V130H548.331V126ZM536.663 128V59.6599H532.663V128H536.663ZM534.663 61.6599H548.331V57.6599H534.663V61.6599ZM546.331 59.6599V84.1128H550.331V59.6599H546.331ZM549.495 85.7393L583.665 61.2863L581.337 58.0334L547.167 82.4864L549.495 85.7393ZM582.501 61.6599H603.003V57.6599H582.501V61.6599ZM601.841 58.0324L554.003 92.2025L556.328 95.4574L604.166 61.2873L601.841 58.0324ZM554.003 95.4574L601.841 129.627L604.166 126.373L556.328 92.2025L554.003 95.4574ZM603.003 126H582.501V130H603.003V126ZM583.665 126.374L549.495 101.921L547.167 105.173L581.337 129.626L583.665 126.374Z" fill="white" mask="url(#path-1-outside-1_243_50885)"/>
</g>
<mask id="path-3-outside-2_243_50885" maskUnits="userSpaceOnUse" x="28" y="51" width="582" height="107" fill="black">
<rect fill="white" x="28" y="51" width="582" height="107"/>
<path d="M77.2839 128L54.7531 86.9959H78.6721C80.5942 86.9959 82.1959 86.3552 83.4773 85.0739C84.8298 83.7213 85.5061 82.084 85.5061 80.1619C85.5061 78.2399 84.8298 76.6381 83.4773 75.3568C82.1959 74.0042 80.5942 73.3279 78.6721 73.3279H44.502V128H30.834V59.6599H78.6721C84.3671 59.6599 89.2079 61.6531 93.1944 65.6396C97.1809 69.6262 99.1741 74.4669 99.1741 80.1619C99.1741 85.8569 97.1809 90.6977 93.1944 94.6842C89.2079 98.6707 84.3671 100.664 78.6721 100.664H75.6822L90.8452 128H77.2839ZM136.629 128C127.161 128 119.081 124.69 112.389 118.069C105.769 111.378 102.459 103.298 102.459 93.8299C102.459 84.362 105.769 76.3178 112.389 69.6973C119.081 63.0057 127.161 59.6599 136.629 59.6599C146.097 59.6599 154.141 63.0057 160.761 69.6973C167.453 76.3178 170.799 84.362 170.799 93.8299C170.799 103.298 167.453 111.378 160.761 118.069C154.141 124.69 146.097 128 136.629 128ZM136.629 114.332C142.324 114.332 147.165 112.339 151.151 108.352C155.138 104.366 157.131 99.525 157.131 93.8299C157.131 88.1349 155.138 83.2942 151.151 79.3077C147.165 75.3212 142.324 73.3279 136.629 73.3279C130.934 73.3279 126.093 75.3212 122.107 79.3077C118.12 83.2942 116.127 88.1349 116.127 93.8299C116.127 99.525 118.12 104.366 122.107 108.352C126.093 112.339 130.934 114.332 136.629 114.332ZM225.445 128H177.607V59.6599H225.445C231.14 59.6599 235.981 61.6531 239.968 65.6396C243.954 69.6262 245.947 74.4669 245.947 80.1619C245.947 85.4298 244.239 89.9858 240.822 93.8299C244.239 97.6741 245.947 102.23 245.947 107.498C245.947 113.193 243.954 118.034 239.968 122.02C235.981 126.007 231.14 128 225.445 128ZM191.275 114.332H225.445C227.367 114.332 228.969 113.691 230.25 112.41C231.603 111.057 232.279 109.42 232.279 107.498C232.279 105.576 231.603 103.974 230.25 102.693C228.969 101.34 227.367 100.664 225.445 100.664H208.36V86.9959H225.445C227.367 86.9959 228.969 86.3552 230.25 85.0739C231.603 83.7213 232.279 82.084 232.279 80.1619C232.279 78.2399 231.603 76.6381 230.25 75.3568C228.969 74.0042 227.367 73.3279 225.445 73.3279H191.275V114.332ZM285.644 128C276.176 128 268.097 124.69 261.405 118.069C254.785 111.378 251.474 103.298 251.474 93.8299C251.474 84.362 254.785 76.3178 261.405 69.6973C268.097 63.0057 276.176 59.6599 285.644 59.6599C295.112 59.6599 303.157 63.0057 309.777 69.6973C316.469 76.3178 319.814 84.362 319.814 93.8299C319.814 103.298 316.469 111.378 309.777 118.069C303.157 124.69 295.112 128 285.644 128ZM285.644 114.332C291.339 114.332 296.18 112.339 300.167 108.352C304.153 104.366 306.146 99.525 306.146 93.8299C306.146 88.1349 304.153 83.2942 300.167 79.3077C296.18 75.3212 291.339 73.3279 285.644 73.3279C279.949 73.3279 275.109 75.3212 271.122 79.3077C267.136 83.2942 265.142 88.1349 265.142 93.8299C265.142 99.525 267.136 104.366 271.122 108.352C275.109 112.339 279.949 114.332 285.644 114.332ZM340.291 155.336H326.623V59.6599H374.461C380.156 59.6599 384.997 61.6531 388.983 65.6396C392.97 69.6262 394.963 74.4669 394.963 80.1619C394.963 85.8569 392.97 90.6977 388.983 94.6842C384.997 98.6707 380.156 100.664 374.461 100.664H357.376V86.9959H374.461C376.383 86.9959 377.985 86.3552 379.266 85.0739C380.619 83.7213 381.295 82.084 381.295 80.1619C381.295 78.2399 380.619 76.6381 379.266 75.3568C377.985 74.0042 376.383 73.3279 374.461 73.3279H340.291V155.336ZM380.202 128L414.372 56.2429L448.542 128H433.165L414.372 88.7044L395.578 128H380.202ZM476.813 114.332H524.651V128H476.813C467.345 128 459.265 124.69 452.574 118.069C445.953 111.378 442.643 103.298 442.643 93.8299C442.643 84.362 445.953 76.3178 452.574 69.6973C459.265 63.0057 467.345 59.6599 476.813 59.6599H531.485L524.651 73.3279H476.813C471.118 73.3279 466.277 75.3212 462.291 79.3077C458.304 83.2942 456.311 88.1349 456.311 93.8299C456.311 99.525 458.304 104.366 462.291 108.352C466.277 112.339 471.118 114.332 476.813 114.332ZM548.331 103.547V128H534.663V59.6599H548.331V84.1128L582.501 59.6599H603.003L555.165 93.8299L603.003 128H582.501L548.331 103.547Z"/>
</mask>
<path d="M77.2839 128L54.7531 86.9959H78.6721C80.5942 86.9959 82.1959 86.3552 83.4773 85.0739C84.8298 83.7213 85.5061 82.084 85.5061 80.1619C85.5061 78.2399 84.8298 76.6381 83.4773 75.3568C82.1959 74.0042 80.5942 73.3279 78.6721 73.3279H44.502V128H30.834V59.6599H78.6721C84.3671 59.6599 89.2079 61.6531 93.1944 65.6396C97.1809 69.6262 99.1741 74.4669 99.1741 80.1619C99.1741 85.8569 97.1809 90.6977 93.1944 94.6842C89.2079 98.6707 84.3671 100.664 78.6721 100.664H75.6822L90.8452 128H77.2839ZM136.629 128C127.161 128 119.081 124.69 112.389 118.069C105.769 111.378 102.459 103.298 102.459 93.8299C102.459 84.362 105.769 76.3178 112.389 69.6973C119.081 63.0057 127.161 59.6599 136.629 59.6599C146.097 59.6599 154.141 63.0057 160.761 69.6973C167.453 76.3178 170.799 84.362 170.799 93.8299C170.799 103.298 167.453 111.378 160.761 118.069C154.141 124.69 146.097 128 136.629 128ZM136.629 114.332C142.324 114.332 147.165 112.339 151.151 108.352C155.138 104.366 157.131 99.525 157.131 93.8299C157.131 88.1349 155.138 83.2942 151.151 79.3077C147.165 75.3212 142.324 73.3279 136.629 73.3279C130.934 73.3279 126.093 75.3212 122.107 79.3077C118.12 83.2942 116.127 88.1349 116.127 93.8299C116.127 99.525 118.12 104.366 122.107 108.352C126.093 112.339 130.934 114.332 136.629 114.332ZM225.445 128H177.607V59.6599H225.445C231.14 59.6599 235.981 61.6531 239.968 65.6396C243.954 69.6262 245.947 74.4669 245.947 80.1619C245.947 85.4298 244.239 89.9858 240.822 93.8299C244.239 97.6741 245.947 102.23 245.947 107.498C245.947 113.193 243.954 118.034 239.968 122.02C235.981 126.007 231.14 128 225.445 128ZM191.275 114.332H225.445C227.367 114.332 228.969 113.691 230.25 112.41C231.603 111.057 232.279 109.42 232.279 107.498C232.279 105.576 231.603 103.974 230.25 102.693C228.969 101.34 227.367 100.664 225.445 100.664H208.36V86.9959H225.445C227.367 86.9959 228.969 86.3552 230.25 85.0739C231.603 83.7213 232.279 82.084 232.279 80.1619C232.279 78.2399 231.603 76.6381 230.25 75.3568C228.969 74.0042 227.367 73.3279 225.445 73.3279H191.275V114.332ZM285.644 128C276.176 128 268.097 124.69 261.405 118.069C254.785 111.378 251.474 103.298 251.474 93.8299C251.474 84.362 254.785 76.3178 261.405 69.6973C268.097 63.0057 276.176 59.6599 285.644 59.6599C295.112 59.6599 303.157 63.0057 309.777 69.6973C316.469 76.3178 319.814 84.362 319.814 93.8299C319.814 103.298 316.469 111.378 309.777 118.069C303.157 124.69 295.112 128 285.644 128ZM285.644 114.332C291.339 114.332 296.18 112.339 300.167 108.352C304.153 104.366 306.146 99.525 306.146 93.8299C306.146 88.1349 304.153 83.2942 300.167 79.3077C296.18 75.3212 291.339 73.3279 285.644 73.3279C279.949 73.3279 275.109 75.3212 271.122 79.3077C267.136 83.2942 265.142 88.1349 265.142 93.8299C265.142 99.525 267.136 104.366 271.122 108.352C275.109 112.339 279.949 114.332 285.644 114.332ZM340.291 155.336H326.623V59.6599H374.461C380.156 59.6599 384.997 61.6531 388.983 65.6396C392.97 69.6262 394.963 74.4669 394.963 80.1619C394.963 85.8569 392.97 90.6977 388.983 94.6842C384.997 98.6707 380.156 100.664 374.461 100.664H357.376V86.9959H374.461C376.383 86.9959 377.985 86.3552 379.266 85.0739C380.619 83.7213 381.295 82.084 381.295 80.1619C381.295 78.2399 380.619 76.6381 379.266 75.3568C377.985 74.0042 376.383 73.3279 374.461 73.3279H340.291V155.336ZM380.202 128L414.372 56.2429L448.542 128H433.165L414.372 88.7044L395.578 128H380.202ZM476.813 114.332H524.651V128H476.813C467.345 128 459.265 124.69 452.574 118.069C445.953 111.378 442.643 103.298 442.643 93.8299C442.643 84.362 445.953 76.3178 452.574 69.6973C459.265 63.0057 467.345 59.6599 476.813 59.6599H531.485L524.651 73.3279H476.813C471.118 73.3279 466.277 75.3212 462.291 79.3077C458.304 83.2942 456.311 88.1349 456.311 93.8299C456.311 99.525 458.304 104.366 462.291 108.352C466.277 112.339 471.118 114.332 476.813 114.332ZM548.331 103.547V128H534.663V59.6599H548.331V84.1128L582.501 59.6599H603.003L555.165 93.8299L603.003 128H582.501L548.331 103.547Z" fill="white"/>
<path d="M77.2839 128L75.5311 128.963L76.1009 130H77.2839V128ZM54.7531 86.9959V84.9959H51.3721L53.0002 87.9591L54.7531 86.9959ZM83.4773 85.0739L84.8915 86.4881L83.4773 85.0739ZM83.4773 75.3568L82.0254 76.7322L82.0625 76.7715L82.1018 76.8087L83.4773 75.3568ZM44.502 73.3279V71.3279H42.502V73.3279H44.502ZM44.502 128V130H46.502V128H44.502ZM30.834 128H28.834V130H30.834V128ZM30.834 59.6599V57.6599H28.834V59.6599H30.834ZM75.6822 100.664V98.664H72.2858L73.9333 101.634L75.6822 100.664ZM90.8452 128V130H94.2416L92.5941 127.03L90.8452 128ZM79.0368 127.037L56.5059 86.0328L53.0002 87.9591L75.5311 128.963L79.0368 127.037ZM54.7531 88.9959H78.6721V84.9959H54.7531V88.9959ZM78.6721 88.9959C81.0889 88.9959 83.2105 88.169 84.8915 86.4881L82.063 83.6597C81.1813 84.5414 80.0994 84.9959 78.6721 84.9959V88.9959ZM84.8915 86.4881C86.6211 84.7584 87.5061 82.6115 87.5061 80.1619H83.5061C83.5061 81.5564 83.0385 82.6842 82.063 83.6597L84.8915 86.4881ZM87.5061 80.1619C87.5061 77.7103 86.618 75.5772 84.8527 73.9048L82.1018 76.8087C83.0417 77.6991 83.5061 78.7695 83.5061 80.1619H87.5061ZM84.9292 73.9813C83.2568 72.216 81.1238 71.3279 78.6721 71.3279V75.3279C80.0646 75.3279 81.1349 75.7924 82.0254 76.7322L84.9292 73.9813ZM78.6721 71.3279H44.502V75.3279H78.6721V71.3279ZM42.502 73.3279V128H46.502V73.3279H42.502ZM44.502 126H30.834V130H44.502V126ZM32.834 128V59.6599H28.834V128H32.834ZM30.834 61.6599H78.6721V57.6599H30.834V61.6599ZM78.6721 61.6599C83.8427 61.6599 88.173 63.4467 91.7802 67.0539L94.6086 64.2254C90.2427 59.8596 84.8915 57.6599 78.6721 57.6599V61.6599ZM91.7802 67.0539C95.3873 70.661 97.1741 74.9913 97.1741 80.1619H101.174C101.174 73.9425 98.9744 68.5913 94.6086 64.2254L91.7802 67.0539ZM97.1741 80.1619C97.1741 85.3326 95.3873 89.6628 91.7802 93.27L94.6086 96.0984C98.9744 91.7326 101.174 86.3813 101.174 80.1619H97.1741ZM91.7802 93.27C88.173 96.8772 83.8427 98.664 78.6721 98.664V102.664C84.8915 102.664 90.2427 100.464 94.6086 96.0984L91.7802 93.27ZM78.6721 98.664H75.6822V102.664H78.6721V98.664ZM73.9333 101.634L89.0962 128.97L92.5941 127.03L77.4312 99.6938L73.9333 101.634ZM90.8452 126H77.2839V130H90.8452V126ZM112.389 118.069L110.968 119.476L110.975 119.484L110.983 119.491L112.389 118.069ZM112.389 69.6973L110.975 68.2831L112.389 69.6973ZM160.761 69.6973L159.34 71.104L159.347 71.1116L159.355 71.1191L160.761 69.6973ZM151.151 108.352L149.737 106.938L151.151 108.352ZM151.151 79.3077L149.737 80.7219L151.151 79.3077ZM136.629 126C127.684 126 120.111 122.895 113.796 116.648L110.983 119.491C118.051 126.484 126.638 130 136.629 130V126ZM113.811 116.663C107.564 110.348 104.459 102.775 104.459 93.8299H100.459C100.459 103.821 103.974 112.407 110.968 119.476L113.811 116.663ZM104.459 93.8299C104.459 84.8857 107.563 77.3522 113.804 71.1115L110.975 68.2831C103.975 75.2834 100.459 83.8383 100.459 93.8299H104.459ZM113.804 71.1115C120.12 64.7952 127.691 61.6599 136.629 61.6599V57.6599C126.631 57.6599 118.042 61.2162 110.975 68.2831L113.804 71.1115ZM136.629 61.6599C145.566 61.6599 153.097 64.7945 159.34 71.104L162.183 68.2907C155.185 61.2169 146.627 57.6599 136.629 57.6599V61.6599ZM159.355 71.1191C165.664 77.3614 168.799 84.8926 168.799 93.8299H172.799C172.799 83.8314 169.242 75.2742 162.168 68.2756L159.355 71.1191ZM168.799 93.8299C168.799 102.768 165.664 110.339 159.347 116.655L162.176 119.484C169.243 112.417 172.799 103.828 172.799 93.8299H168.799ZM159.347 116.655C153.107 122.896 145.573 126 136.629 126V130C146.62 130 155.175 126.484 162.176 119.484L159.347 116.655ZM136.629 116.332C142.848 116.332 148.199 114.132 152.565 109.766L149.737 106.938C146.13 110.545 141.799 112.332 136.629 112.332V116.332ZM152.565 109.766C156.931 105.401 159.131 100.049 159.131 93.8299H155.131C155.131 99.0006 153.344 103.331 149.737 106.938L152.565 109.766ZM159.131 93.8299C159.131 87.6105 156.931 82.2593 152.565 77.8935L149.737 80.7219C153.344 84.3291 155.131 88.6593 155.131 93.8299H159.131ZM152.565 77.8935C148.199 73.5276 142.848 71.3279 136.629 71.3279V75.3279C141.799 75.3279 146.13 77.1147 149.737 80.7219L152.565 77.8935ZM136.629 71.3279C130.409 71.3279 125.058 73.5276 120.692 77.8935L123.521 80.7219C127.128 77.1147 131.458 75.3279 136.629 75.3279V71.3279ZM120.692 77.8935C116.326 82.2593 114.127 87.6105 114.127 93.8299H118.127C118.127 88.6593 119.914 84.3291 123.521 80.7219L120.692 77.8935ZM114.127 93.8299C114.127 100.049 116.326 105.401 120.692 109.766L123.521 106.938C119.914 103.331 118.127 99.0006 118.127 93.8299H114.127ZM120.692 109.766C125.058 114.132 130.409 116.332 136.629 116.332V112.332C131.458 112.332 127.128 110.545 123.521 106.938L120.692 109.766ZM177.607 128H175.607V130H177.607V128ZM177.607 59.6599V57.6599H175.607V59.6599H177.607ZM240.822 93.8299L239.327 92.5012L238.146 93.8299L239.327 95.1587L240.822 93.8299ZM191.275 114.332H189.275V116.332H191.275V114.332ZM230.25 112.41L231.665 113.824L230.25 112.41ZM230.25 102.693L228.799 104.068L228.836 104.108L228.875 104.145L230.25 102.693ZM208.36 100.664H206.36V102.664H208.36V100.664ZM208.36 86.9959V84.9959H206.36V86.9959H208.36ZM230.25 85.0739L231.665 86.4881L230.25 85.0739ZM230.25 75.3568L228.799 76.7322L228.836 76.7715L228.875 76.8087L230.25 75.3568ZM191.275 73.3279V71.3279H189.275V73.3279H191.275ZM225.445 126H177.607V130H225.445V126ZM179.607 128V59.6599H175.607V128H179.607ZM177.607 61.6599H225.445V57.6599H177.607V61.6599ZM225.445 61.6599C230.616 61.6599 234.946 63.4467 238.553 67.0539L241.382 64.2254C237.016 59.8596 231.665 57.6599 225.445 57.6599V61.6599ZM238.553 67.0539C242.161 70.661 243.947 74.9913 243.947 80.1619H247.947C247.947 73.9425 245.748 68.5913 241.382 64.2254L238.553 67.0539ZM243.947 80.1619C243.947 84.953 242.41 89.0328 239.327 92.5012L242.317 95.1587C246.068 90.9388 247.947 85.9066 247.947 80.1619H243.947ZM239.327 95.1587C242.41 98.6271 243.947 102.707 243.947 107.498H247.947C247.947 101.753 246.068 96.7211 242.317 92.5012L239.327 95.1587ZM243.947 107.498C243.947 112.669 242.161 116.999 238.553 120.606L241.382 123.434C245.748 119.069 247.947 113.717 247.947 107.498H243.947ZM238.553 120.606C234.946 124.213 230.616 126 225.445 126V130C231.665 130 237.016 127.8 241.382 123.434L238.553 120.606ZM191.275 116.332H225.445V112.332H191.275V116.332ZM225.445 116.332C227.862 116.332 229.984 115.505 231.665 113.824L228.836 110.996C227.954 111.877 226.873 112.332 225.445 112.332V116.332ZM231.665 113.824C233.394 112.094 234.279 109.948 234.279 107.498H230.279C230.279 108.892 229.812 110.02 228.836 110.996L231.665 113.824ZM234.279 107.498C234.279 105.046 233.391 102.913 231.626 101.241L228.875 104.145C229.815 105.035 230.279 106.105 230.279 107.498H234.279ZM231.702 101.317C230.03 99.5521 227.897 98.664 225.445 98.664V102.664C226.838 102.664 227.908 103.128 228.799 104.068L231.702 101.317ZM225.445 98.664H208.36V102.664H225.445V98.664ZM210.36 100.664V86.9959H206.36V100.664H210.36ZM208.36 88.9959H225.445V84.9959H208.36V88.9959ZM225.445 88.9959C227.862 88.9959 229.984 88.169 231.665 86.4881L228.836 83.6597C227.954 84.5414 226.873 84.9959 225.445 84.9959V88.9959ZM231.665 86.4881C233.394 84.7584 234.279 82.6115 234.279 80.1619H230.279C230.279 81.5564 229.812 82.6842 228.836 83.6597L231.665 86.4881ZM234.279 80.1619C234.279 77.7103 233.391 75.5772 231.626 73.9048L228.875 76.8087C229.815 77.6991 230.279 78.7695 230.279 80.1619H234.279ZM231.702 73.9813C230.03 72.216 227.897 71.3279 225.445 71.3279V75.3279C226.838 75.3279 227.908 75.7924 228.799 76.7322L231.702 73.9813ZM225.445 71.3279H191.275V75.3279H225.445V71.3279ZM189.275 73.3279V114.332H193.275V73.3279H189.275ZM261.405 118.069L259.983 119.476L259.991 119.484L259.998 119.491L261.405 118.069ZM261.405 69.6973L259.991 68.2831L261.405 69.6973ZM309.777 69.6973L308.355 71.104L308.363 71.1116L308.37 71.1191L309.777 69.6973ZM300.167 108.352L298.752 106.938L300.167 108.352ZM300.167 79.3077L298.752 80.7219L300.167 79.3077ZM285.644 126C276.7 126 269.126 122.895 262.812 116.648L259.998 119.491C267.067 126.484 275.653 130 285.644 130V126ZM262.827 116.663C256.579 110.348 253.474 102.775 253.474 93.8299H249.474C249.474 103.821 252.99 112.407 259.983 119.476L262.827 116.663ZM253.474 93.8299C253.474 84.8857 256.579 77.3522 262.819 71.1115L259.991 68.2831C252.991 75.2834 249.474 83.8383 249.474 93.8299H253.474ZM262.819 71.1115C269.136 64.7952 276.707 61.6599 285.644 61.6599V57.6599C275.646 57.6599 267.058 61.2162 259.991 68.2831L262.819 71.1115ZM285.644 61.6599C294.582 61.6599 302.113 64.7945 308.355 71.104L311.199 68.2907C304.2 61.2169 295.643 57.6599 285.644 57.6599V61.6599ZM308.37 71.1191C314.68 77.3614 317.814 84.8926 317.814 93.8299H321.814C321.814 83.8314 318.257 75.2742 311.184 68.2756L308.37 71.1191ZM317.814 93.8299C317.814 102.768 314.679 110.339 308.363 116.655L311.191 119.484C318.258 112.417 321.814 103.828 321.814 93.8299H317.814ZM308.363 116.655C302.122 122.896 294.589 126 285.644 126V130C295.636 130 304.191 126.484 311.191 119.484L308.363 116.655ZM285.644 116.332C291.864 116.332 297.215 114.132 301.581 109.766L298.752 106.938C295.145 110.545 290.815 112.332 285.644 112.332V116.332ZM301.581 109.766C305.947 105.401 308.146 100.049 308.146 93.8299H304.146C304.146 99.0006 302.36 103.331 298.752 106.938L301.581 109.766ZM308.146 93.8299C308.146 87.6105 305.947 82.2593 301.581 77.8935L298.752 80.7219C302.36 84.3291 304.146 88.6593 304.146 93.8299H308.146ZM301.581 77.8935C297.215 73.5276 291.864 71.3279 285.644 71.3279V75.3279C290.815 75.3279 295.145 77.1147 298.752 80.7219L301.581 77.8935ZM285.644 71.3279C279.425 71.3279 274.074 73.5276 269.708 77.8935L272.536 80.7219C276.144 77.1147 280.474 75.3279 285.644 75.3279V71.3279ZM269.708 77.8935C265.342 82.2593 263.142 87.6105 263.142 93.8299H267.142C267.142 88.6593 268.929 84.3291 272.536 80.7219L269.708 77.8935ZM263.142 93.8299C263.142 100.049 265.342 105.401 269.708 109.766L272.536 106.938C268.929 103.331 267.142 99.0006 267.142 93.8299H263.142ZM269.708 109.766C274.074 114.132 279.425 116.332 285.644 116.332V112.332C280.474 112.332 276.144 110.545 272.536 106.938L269.708 109.766ZM340.291 155.336V157.336H342.291V155.336H340.291ZM326.623 155.336H324.623V157.336H326.623V155.336ZM326.623 59.6599V57.6599H324.623V59.6599H326.623ZM357.376 100.664H355.376V102.664H357.376V100.664ZM357.376 86.9959V84.9959H355.376V86.9959H357.376ZM379.266 85.0739L380.68 86.4881L379.266 85.0739ZM379.266 75.3568L377.814 76.7322L377.851 76.7715L377.891 76.8087L379.266 75.3568ZM340.291 73.3279V71.3279H338.291V73.3279H340.291ZM340.291 153.336H326.623V157.336H340.291V153.336ZM328.623 155.336V59.6599H324.623V155.336H328.623ZM326.623 61.6599H374.461V57.6599H326.623V61.6599ZM374.461 61.6599C379.632 61.6599 383.962 63.4467 387.569 67.0539L390.397 64.2254C386.032 59.8596 380.68 57.6599 374.461 57.6599V61.6599ZM387.569 67.0539C391.176 70.661 392.963 74.9913 392.963 80.1619H396.963C396.963 73.9425 394.763 68.5913 390.397 64.2254L387.569 67.0539ZM392.963 80.1619C392.963 85.3326 391.176 89.6628 387.569 93.27L390.397 96.0984C394.763 91.7326 396.963 86.3813 396.963 80.1619H392.963ZM387.569 93.27C383.962 96.8772 379.632 98.664 374.461 98.664V102.664C380.68 102.664 386.032 100.464 390.397 96.0984L387.569 93.27ZM374.461 98.664H357.376V102.664H374.461V98.664ZM359.376 100.664V86.9959H355.376V100.664H359.376ZM357.376 88.9959H374.461V84.9959H357.376V88.9959ZM374.461 88.9959C376.878 88.9959 378.999 88.169 380.68 86.4881L377.852 83.6597C376.97 84.5414 375.888 84.9959 374.461 84.9959V88.9959ZM380.68 86.4881C382.41 84.7584 383.295 82.6115 383.295 80.1619H379.295C379.295 81.5564 378.827 82.6842 377.852 83.6597L380.68 86.4881ZM383.295 80.1619C383.295 77.7103 382.407 75.5772 380.642 73.9048L377.891 76.8087C378.831 77.6991 379.295 78.7695 379.295 80.1619H383.295ZM380.718 73.9813C379.046 72.216 376.913 71.3279 374.461 71.3279V75.3279C375.853 75.3279 376.924 75.7924 377.814 76.7322L380.718 73.9813ZM374.461 71.3279H340.291V75.3279H374.461V71.3279ZM338.291 73.3279V155.336H342.291V73.3279H338.291ZM380.202 128L378.396 127.14L377.034 130H380.202V128ZM414.372 56.2429L416.177 55.383L414.372 51.591L412.566 55.383L414.372 56.2429ZM448.542 128V130H451.709L450.347 127.14L448.542 128ZM433.165 128L431.361 128.863L431.905 130H433.165V128ZM414.372 88.7044L416.176 87.8415L414.372 84.069L412.567 87.8415L414.372 88.7044ZM395.578 128V130H396.838L397.382 128.863L395.578 128ZM382.007 128.86L416.177 57.1027L412.566 55.383L378.396 127.14L382.007 128.86ZM412.566 57.1027L446.736 128.86L450.347 127.14L416.177 55.383L412.566 57.1027ZM448.542 126H433.165V130H448.542V126ZM434.969 127.137L416.176 87.8415L412.567 89.5673L431.361 128.863L434.969 127.137ZM412.567 87.8415L393.774 127.137L397.382 128.863L416.176 89.5673L412.567 87.8415ZM395.578 126H380.202V130H395.578V126ZM524.651 114.332H526.651V112.332H524.651V114.332ZM524.651 128V130H526.651V128H524.651ZM452.574 118.069L451.152 119.476L451.159 119.484L451.167 119.491L452.574 118.069ZM452.574 69.6973L451.159 68.2831L452.574 69.6973ZM531.485 59.6599L533.274 60.5543L534.721 57.6599H531.485V59.6599ZM524.651 73.3279V75.3279H525.887L526.44 74.2223L524.651 73.3279ZM476.813 116.332H524.651V112.332H476.813V116.332ZM522.651 114.332V128H526.651V114.332H522.651ZM524.651 126H476.813V130H524.651V126ZM476.813 126C467.868 126 460.295 122.895 453.98 116.648L451.167 119.491C458.236 126.484 466.822 130 476.813 130V126ZM453.995 116.663C447.748 110.348 444.643 102.775 444.643 93.8299H440.643C440.643 103.821 444.159 112.407 451.152 119.476L453.995 116.663ZM444.643 93.8299C444.643 84.8857 447.747 77.3522 453.988 71.1115L451.159 68.2831C444.159 75.2834 440.643 83.8383 440.643 93.8299H444.643ZM453.988 71.1115C460.304 64.7952 467.875 61.6599 476.813 61.6599V57.6599C466.815 57.6599 458.226 61.2162 451.159 68.2831L453.988 71.1115ZM476.813 61.6599H531.485V57.6599H476.813V61.6599ZM529.696 58.7655L522.862 72.4335L526.44 74.2223L533.274 60.5543L529.696 58.7655ZM524.651 71.3279H476.813V75.3279H524.651V71.3279ZM476.813 71.3279C470.594 71.3279 465.242 73.5276 460.877 77.8935L463.705 80.7219C467.312 77.1147 471.642 75.3279 476.813 75.3279V71.3279ZM460.877 77.8935C456.511 82.2593 454.311 87.6105 454.311 93.8299H458.311C458.311 88.6593 460.098 84.3291 463.705 80.7219L460.877 77.8935ZM454.311 93.8299C454.311 100.049 456.511 105.401 460.877 109.766L463.705 106.938C460.098 103.331 458.311 99.0006 458.311 93.8299H454.311ZM460.877 109.766C465.242 114.132 470.594 116.332 476.813 116.332V112.332C471.642 112.332 467.312 110.545 463.705 106.938L460.877 109.766ZM548.331 103.547L549.495 101.921L546.331 99.6564V103.547H548.331ZM548.331 128V130H550.331V128H548.331ZM534.663 128H532.663V130H534.663V128ZM534.663 59.6599V57.6599H532.663V59.6599H534.663ZM548.331 59.6599H550.331V57.6599H548.331V59.6599ZM548.331 84.1128H546.331V88.0034L549.495 85.7393L548.331 84.1128ZM582.501 59.6599V57.6599H581.859L581.337 58.0334L582.501 59.6599ZM603.003 59.6599L604.166 61.2873L609.244 57.6599H603.003V59.6599ZM555.165 93.8299L554.003 92.2025L551.724 93.8299L554.003 95.4574L555.165 93.8299ZM603.003 128V130H609.244L604.166 126.373L603.003 128ZM582.501 128L581.337 129.626L581.859 130H582.501V128ZM546.331 103.547V128H550.331V103.547H546.331ZM548.331 126H534.663V130H548.331V126ZM536.663 128V59.6599H532.663V128H536.663ZM534.663 61.6599H548.331V57.6599H534.663V61.6599ZM546.331 59.6599V84.1128H550.331V59.6599H546.331ZM549.495 85.7393L583.665 61.2863L581.337 58.0334L547.167 82.4864L549.495 85.7393ZM582.501 61.6599H603.003V57.6599H582.501V61.6599ZM601.841 58.0324L554.003 92.2025L556.328 95.4574L604.166 61.2873L601.841 58.0324ZM554.003 95.4574L601.841 129.627L604.166 126.373L556.328 92.2025L554.003 95.4574ZM603.003 126H582.501V130H603.003V126ZM583.665 126.374L549.495 101.921L547.167 105.173L581.337 129.626L583.665 126.374Z" fill="#FBDC01" mask="url(#path-3-outside-2_243_50885)"/>
<defs>
<filter id="filter0_f_243_50885" x="0.834015" y="26.2429" width="632.169" height="159.093" filterUnits="userSpaceOnUse" color-interpolation-filters="sRGB">
<feFlood flood-opacity="0" result="BackgroundImageFix"/>
<feBlend mode="normal" in="SourceGraphic" in2="BackgroundImageFix" result="shape"/>
<feGaussianBlur stdDeviation="15" result="effect1_foregroundBlur_243_50885"/>
</filter>
</defs>
</svg>
