<svg width="140" height="39" viewBox="0 0 140 39" fill="none" xmlns="http://www.w3.org/2000/svg">
<path d="M36.3535 27.9383C36.5555 29.4449 37.9496 30.5128 40.1923 30.5128C41.3641 30.5128 42.8996 30.0933 43.6269 29.3877L45.6675 31.2756C44.3139 32.6106 42.0914 33.2399 40.1518 33.2399C35.7272 33.2399 33.0804 30.6654 33.0804 26.775C33.0804 23.0944 35.7474 20.4246 39.9094 20.4246C44.2128 20.4246 46.9 22.9419 46.3949 27.9193H36.3535V27.9383ZM43.3239 25.4592C43.1218 23.8763 41.8086 23.0944 39.9902 23.0944C38.2729 23.0944 36.8586 23.8763 36.3939 25.4592H43.3239Z" fill="white"/>
<path d="M58.9617 38.0074V31.5044C58.0525 32.8393 56.0524 33.2207 54.6785 33.2207C50.5569 33.2207 48.193 30.4173 48.193 26.8702C48.193 23.3041 50.8195 20.5198 54.7795 20.5198C56.2342 20.5198 57.9515 21.111 58.9415 22.465L59.1436 20.7868H62.1136V37.9883H58.9617V38.0074ZM58.6789 26.8893C58.6789 25.0013 57.3252 23.4376 55.0219 23.4376C52.7187 23.4376 51.365 24.9823 51.365 26.8893C51.365 28.7964 52.8601 30.3411 55.0219 30.3411C57.204 30.322 58.6789 28.7773 58.6789 26.8893Z" fill="white"/>
<path d="M67.9323 20.8059V27.1564C67.9323 29.0062 69.0031 30.3984 71.0438 30.3984C73.0035 30.3984 74.337 28.8536 74.337 27.0038V20.8059H77.4888V32.9538H74.6401L74.438 31.3137C73.1046 32.5533 71.8923 33.1254 70.0942 33.1254C67.0232 33.1254 64.7805 30.9323 64.7805 27.1754V20.8059H67.9323Z" fill="white"/>
<path d="M90.4799 20.806H93.5307V32.9348H90.5405L90.3789 31.1612C89.6516 32.5915 87.6514 33.2781 86.2169 33.2971C82.4185 33.3162 79.59 31.104 79.59 26.8513C79.59 22.6749 82.5397 20.4818 86.2977 20.5009C88.015 20.5009 89.6516 21.2637 90.3991 22.4651L90.4799 20.806ZM82.762 26.8704C82.762 29.1779 84.4591 30.551 86.5603 30.551C91.5709 30.551 91.5709 23.1898 86.5603 23.1898C84.4591 23.1898 82.762 24.5438 82.762 26.8704Z" fill="white"/>
<path d="M100.158 17.3923V20.8441H103.693V23.4186H100.117V28.663C100.117 29.8263 100.804 30.3793 101.794 30.3793C102.299 30.3793 102.865 30.2267 103.33 30.017L104.219 32.5724C103.31 32.9157 102.542 33.0682 101.592 33.0873C98.8041 33.1827 96.9857 31.6761 96.9857 28.663V23.4186H94.5814V20.8441H96.9857V17.7165L100.158 17.3923Z" fill="white"/>
<path d="M109.532 17.3923C109.532 19.738 105.774 19.738 105.774 17.3923C105.774 15.0466 109.532 15.0466 109.532 17.3923ZM106.057 20.7678V32.9538H109.229V20.7678H106.057Z" fill="white"/>
<path d="M125.17 26.8893C125.17 30.3791 122.645 33.2206 118.462 33.2206C114.28 33.2206 111.795 30.3982 111.795 26.8893C111.795 23.4184 114.341 20.5579 118.442 20.5579C122.544 20.5579 125.17 23.4184 125.17 26.8893ZM114.987 26.8893C114.987 28.7391 116.159 30.4554 118.483 30.4554C120.806 30.4554 121.978 28.7391 121.978 26.8893C121.978 25.0776 120.624 23.304 118.483 23.304C116.179 23.304 114.987 25.0585 114.987 26.8893Z" fill="white"/>
<path d="M136.828 32.9345V26.584C136.828 24.7342 135.757 23.3421 133.717 23.3421C131.757 23.3421 130.423 24.8868 130.423 26.7366V32.9345H127.271V20.7866H130.12L130.322 22.4267C131.636 21.2252 132.929 20.615 134.545 20.615C137.576 20.615 140 22.7509 140 26.565V32.9345H136.828Z" fill="white"/>
<path d="M36.3535 27.9383C36.5555 29.4449 37.9496 30.5128 40.1923 30.5128C41.3641 30.5128 42.8996 30.0933 43.6269 29.3877L45.6675 31.2756C44.3139 32.6106 42.0914 33.2399 40.1518 33.2399C35.7272 33.2399 33.0804 30.6654 33.0804 26.775C33.0804 23.0944 35.7474 20.4246 39.9094 20.4246C44.2128 20.4246 46.9 22.9419 46.3949 27.9193H36.3535V27.9383ZM43.3239 25.4592C43.1218 23.8763 41.8086 23.0944 39.9902 23.0944C38.2729 23.0944 36.8586 23.8763 36.3939 25.4592H43.3239Z" fill="white"/>
<path d="M58.9617 38.0074V31.5044C58.0525 32.8393 56.0524 33.2207 54.6785 33.2207C50.5569 33.2207 48.193 30.4173 48.193 26.8702C48.193 23.3041 50.8195 20.5198 54.7795 20.5198C56.2342 20.5198 57.9515 21.111 58.9415 22.465L59.1436 20.7868H62.1136V37.9883H58.9617V38.0074ZM58.6789 26.8893C58.6789 25.0013 57.3252 23.4376 55.0219 23.4376C52.7187 23.4376 51.365 24.9823 51.365 26.8893C51.365 28.7964 52.8601 30.3411 55.0219 30.3411C57.204 30.322 58.6789 28.7773 58.6789 26.8893Z" fill="white"/>
<path d="M67.9323 20.8059V27.1564C67.9323 29.0062 69.0031 30.3984 71.0438 30.3984C73.0035 30.3984 74.337 28.8536 74.337 27.0038V20.8059H77.4888V32.9538H74.6401L74.438 31.3137C73.1046 32.5533 71.8923 33.1254 70.0942 33.1254C67.0232 33.1254 64.7805 30.9323 64.7805 27.1754V20.8059H67.9323Z" fill="white"/>
<path d="M90.4799 20.806H93.5307V32.9348H90.5405L90.3789 31.1612C89.6516 32.5915 87.6514 33.2781 86.2169 33.2971C82.4185 33.3162 79.59 31.104 79.59 26.8513C79.59 22.6749 82.5397 20.4818 86.2977 20.5009C88.015 20.5009 89.6516 21.2637 90.3991 22.4651L90.4799 20.806ZM82.762 26.8704C82.762 29.1779 84.4591 30.551 86.5603 30.551C91.5709 30.551 91.5709 23.1898 86.5603 23.1898C84.4591 23.1898 82.762 24.5438 82.762 26.8704Z" fill="white"/>
<path d="M100.158 17.3923V20.8441H103.693V23.4186H100.117V28.663C100.117 29.8263 100.804 30.3793 101.794 30.3793C102.299 30.3793 102.865 30.2267 103.33 30.017L104.219 32.5724C103.31 32.9157 102.542 33.0682 101.592 33.0873C98.8041 33.1827 96.9857 31.6761 96.9857 28.663V23.4186H94.5814V20.8441H96.9857V17.7165L100.158 17.3923Z" fill="white"/>
<path d="M109.532 17.3923C109.532 19.738 105.774 19.738 105.774 17.3923C105.774 15.0466 109.532 15.0466 109.532 17.3923ZM106.057 20.7678V32.9538H109.229V20.7678H106.057Z" fill="white"/>
<path d="M125.17 26.8893C125.17 30.3791 122.645 33.2206 118.462 33.2206C114.28 33.2206 111.795 30.3982 111.795 26.8893C111.795 23.4184 114.341 20.5579 118.442 20.5579C122.544 20.5579 125.17 23.4184 125.17 26.8893ZM114.987 26.8893C114.987 28.7391 116.159 30.4554 118.483 30.4554C120.806 30.4554 121.978 28.7391 121.978 26.8893C121.978 25.0776 120.624 23.304 118.483 23.304C116.179 23.304 114.987 25.0585 114.987 26.8893Z" fill="white"/>
<path d="M136.828 32.9345V26.584C136.828 24.7342 135.757 23.3421 133.717 23.3421C131.757 23.3421 130.423 24.8868 130.423 26.7366V32.9345H127.271V20.7866H130.12L130.322 22.4267C131.636 21.2252 132.929 20.615 134.545 20.615C137.576 20.615 140 22.7509 140 26.565V32.9345H136.828Z" fill="white"/>
<path d="M42.0105 12.5865V6.14068C42.0105 4.55783 41.1215 3.10848 39.4042 3.10848C37.7071 3.10848 36.6969 4.55783 36.6969 6.14068V12.5865H33.545V0.533966H36.4746L36.7171 2.00239C37.3838 0.781884 38.8587 0.343262 40.0709 0.343262C41.6064 0.343262 43.1217 0.934449 43.8491 2.59358C44.9805 0.877238 46.4554 0.400477 48.1121 0.400477C51.7286 0.400477 53.5268 2.49822 53.5268 6.10254V12.5865H50.375V6.10254C50.375 4.51969 49.6678 3.16569 47.9707 3.16569C46.2736 3.16569 45.2028 4.55783 45.2028 6.14068V12.5865H42.0105Z" fill="black"/>
<path d="M69.0031 0.552979L61.2245 17.621H57.7494L60.1335 12.3957L55.0421 0.552979H58.7192L60.6588 5.75921L61.8711 9.15375L63.1843 5.83549L65.5078 0.57205H69.0031V0.552979Z" fill="black"/>
<path d="M42.0105 12.5865V6.14068C42.0105 4.55783 41.1215 3.10848 39.4042 3.10848C37.7071 3.10848 36.6969 4.55783 36.6969 6.14068V12.5865H33.545V0.533966H36.4746L36.7171 2.00239C37.3838 0.781884 38.8587 0.343262 40.0709 0.343262C41.6064 0.343262 43.1217 0.934449 43.8491 2.59358C44.9805 0.877238 46.4554 0.400477 48.1121 0.400477C51.7286 0.400477 53.5268 2.49822 53.5268 6.10254V12.5865H50.375V6.10254C50.375 4.51969 49.6678 3.16569 47.9707 3.16569C46.2736 3.16569 45.2028 4.55783 45.2028 6.14068V12.5865H42.0105Z" fill="url(#paint0_linear_14_100773)"/>
<path d="M69.0031 0.552979L61.2245 17.621H57.7494L60.1335 12.3957L55.0421 0.552979H58.7192L60.6588 5.75921L61.8711 9.15375L63.1843 5.83549L65.5078 0.57205H69.0031V0.552979Z" fill="url(#paint1_linear_14_100773)"/>
<path d="M66.0534 34.8225H68.094V35.4328H66.7403V36.2337H67.8718V36.8249H66.7403V37.6449H68.1344V38.2552H66.0332V34.8225H66.0534Z" fill="white"/>
<path d="M74.9027 34.8225H76.216C77.206 34.8225 77.9737 35.5281 77.9737 36.5388C77.9737 37.5496 77.2262 38.2552 76.216 38.2552H74.9027V34.8225ZM76.1756 37.6068C76.8625 37.6068 77.2262 37.1682 77.2262 36.5198C77.2262 35.8714 76.8625 35.4328 76.1756 35.4328H75.5896V37.6068H76.1756Z" fill="white"/>
<path d="M83.6107 36.9584V34.8225H84.3179V36.9584C84.3179 37.4924 84.6613 37.664 84.9846 37.664C85.3079 37.664 85.6513 37.4924 85.6513 36.9584V34.8225H86.3585V36.9584C86.3585 37.8166 85.7523 38.2743 84.9846 38.2743C84.2168 38.2743 83.6107 37.8166 83.6107 36.9584Z" fill="white"/>
<path d="M93.1066 36.5199C93.1066 35.4519 93.9551 34.7654 94.9653 34.7654C95.4502 34.7654 96.0564 34.937 96.4402 35.5091L95.9351 35.8333C95.6927 35.5091 95.3492 35.3947 95.0057 35.3947C94.3592 35.3947 93.8339 35.8333 93.8339 36.5199C93.8339 37.2255 94.3592 37.645 95.0057 37.645C95.3694 37.645 95.7129 37.5115 95.9351 37.2064L96.4402 37.5306C96.0564 38.1027 95.4704 38.2743 94.9653 38.2743C93.9551 38.2743 93.1066 37.5878 93.1066 36.5199Z" fill="white"/>
<path d="M104.037 34.8225L105.431 38.2361H104.683L104.441 37.6259H102.906L102.663 38.2361H101.916L103.31 34.8225H104.037ZM104.199 37.0156L103.673 35.6425L103.148 37.0156H104.199Z" fill="white"/>
<path d="M111.735 35.4137H110.866V34.8035H113.311V35.4137H112.442V38.2361H111.735V35.4137Z" fill="white"/>
<path d="M118.948 34.8225H119.655V38.2361H118.948V34.8225Z" fill="white"/>
<path d="M126.403 36.5199C126.403 35.471 127.251 34.7654 128.261 34.7654C129.272 34.7654 130.12 35.471 130.12 36.5199C130.12 37.5687 129.272 38.2743 128.261 38.2743C127.251 38.2743 126.403 37.5687 126.403 36.5199ZM128.261 37.645C128.888 37.645 129.413 37.2064 129.413 36.5199C129.413 35.8333 128.888 35.3947 128.261 35.3947C127.635 35.3947 127.11 35.8333 127.11 36.5199C127.11 37.2064 127.655 37.645 128.261 37.645Z" fill="white"/>
<path d="M135.838 34.8225H136.545L138.202 37.1491H138.222V34.8225H138.929V38.2361H138.222L136.565 35.9095H136.545V38.2361H135.838V34.8225Z" fill="white"/>
<path d="M66.0534 34.8225H68.094V35.4328H66.7403V36.2337H67.8718V36.8249H66.7403V37.6449H68.1344V38.2552H66.0332V34.8225H66.0534Z" fill="white"/>
<path d="M74.9027 34.8225H76.216C77.206 34.8225 77.9737 35.5281 77.9737 36.5388C77.9737 37.5496 77.2262 38.2552 76.216 38.2552H74.9027V34.8225ZM76.1756 37.6068C76.8625 37.6068 77.2262 37.1682 77.2262 36.5198C77.2262 35.8714 76.8625 35.4328 76.1756 35.4328H75.5896V37.6068H76.1756Z" fill="white"/>
<path d="M83.6107 36.9584V34.8225H84.3179V36.9584C84.3179 37.4924 84.6613 37.664 84.9846 37.664C85.3079 37.664 85.6513 37.4924 85.6513 36.9584V34.8225H86.3585V36.9584C86.3585 37.8166 85.7523 38.2743 84.9846 38.2743C84.2168 38.2743 83.6107 37.8166 83.6107 36.9584Z" fill="white"/>
<path d="M93.1066 36.5199C93.1066 35.4519 93.9551 34.7654 94.9653 34.7654C95.4502 34.7654 96.0564 34.937 96.4402 35.5091L95.9351 35.8333C95.6927 35.5091 95.3492 35.3947 95.0057 35.3947C94.3592 35.3947 93.8339 35.8333 93.8339 36.5199C93.8339 37.2255 94.3592 37.645 95.0057 37.645C95.3694 37.645 95.7129 37.5115 95.9351 37.2064L96.4402 37.5306C96.0564 38.1027 95.4704 38.2743 94.9653 38.2743C93.9551 38.2743 93.1066 37.5878 93.1066 36.5199Z" fill="white"/>
<path d="M104.037 34.8225L105.431 38.2361H104.683L104.441 37.6259H102.906L102.663 38.2361H101.916L103.31 34.8225H104.037ZM104.199 37.0156L103.673 35.6425L103.148 37.0156H104.199Z" fill="white"/>
<path d="M111.735 35.4137H110.866V34.8035H113.311V35.4137H112.442V38.2361H111.735V35.4137Z" fill="white"/>
<path d="M118.948 34.8225H119.655V38.2361H118.948V34.8225Z" fill="white"/>
<path d="M126.403 36.5199C126.403 35.471 127.251 34.7654 128.261 34.7654C129.272 34.7654 130.12 35.471 130.12 36.5199C130.12 37.5687 129.272 38.2743 128.261 38.2743C127.251 38.2743 126.403 37.5687 126.403 36.5199ZM128.261 37.645C128.888 37.645 129.413 37.2064 129.413 36.5199C129.413 35.8333 128.888 35.3947 128.261 35.3947C127.635 35.3947 127.11 35.8333 127.11 36.5199C127.11 37.2064 127.655 37.645 128.261 37.645Z" fill="white"/>
<path d="M135.838 34.8225H136.545L138.202 37.1491H138.222V34.8225H138.929V38.2361H138.222L136.565 35.9095H136.545V38.2361H135.838V34.8225Z" fill="white"/>
<path d="M8.55273 0.247803H27.3829L27.5243 6.73175H26.4737C26.4737 6.73175 26.7161 2.2502 21.059 2.30741H10.3913C10.3711 2.32648 9.05783 0.724564 8.55273 0.247803Z" fill="white"/>
<path d="M12.2298 29.3114H24.7159C24.7159 29.3114 28.6961 28.9109 29.3022 24.8298H30.5751C30.5751 24.8298 28.8173 31.7905 28.8577 33.8883C28.8577 33.8883 27.6859 33.6404 26.1706 33.545H8.99719L12.2298 29.3114Z" fill="white"/>
<path d="M6.2293 0L19.3417 16.2289C19.3417 16.2289 19.7256 16.6676 19.2407 17.2397L6.67379 33.6975L0.0872801 33.9072C0.0872801 33.9072 -0.155166 33.7547 0.168098 33.4496L13.0785 17.583C13.0785 17.583 13.826 16.9727 13.2805 16.4196L0.0872801 0.362337C0.0872801 0.362337 -0.276391 1.16368e-06 0.713605 0.0190716H6.2293V0Z" fill="url(#paint2_linear_14_100773)"/>
<defs>
<linearGradient id="paint0_linear_14_100773" x1="51.264" y1="16.0826" x2="51.264" y2="5.53096" gradientUnits="userSpaceOnUse">
<stop offset="2.34895e-08" stop-color="#FBB232"/>
<stop offset="1" stop-color="#FFAD2C"/>
</linearGradient>
<linearGradient id="paint1_linear_14_100773" x1="51.264" y1="16.0825" x2="51.264" y2="5.5309" gradientUnits="userSpaceOnUse">
<stop offset="2.34895e-08" stop-color="#FBB232"/>
<stop offset="1" stop-color="#FFAD2C"/>
</linearGradient>
<linearGradient id="paint2_linear_14_100773" x1="9.7354" y1="33.7229" x2="9.7354" y2="-0.480652" gradientUnits="userSpaceOnUse">
<stop stop-color="#FDB619"/>
<stop offset="1" stop-color="#FEB517"/>
</linearGradient>
</defs>
</svg>
